<svg width="18" height="18" viewBox="0 0 18 18" fill="none" xmlns="http://www.w3.org/2000/svg">
<path d="M3.49524 9.68118C3.45723 9.40766 3.20469 9.21675 2.93118 9.25476C2.65766 9.29277 2.46675 9.54531 2.50476 9.81882L3.49524 9.68118ZM15.0865 11.4423C15.1927 11.1874 15.0722 10.8946 14.8173 10.7885C14.5624 10.6823 14.2696 10.8028 14.1635 11.0577L15.0865 11.4423ZM14.5 14.25C14.5 14.5261 14.7239 14.75 15 14.75C15.2761 14.75 15.5 14.5261 15.5 14.25H14.5ZM15 11.25H15.5C15.5 10.9739 15.2761 10.75 15 10.75V11.25ZM12 10.75C11.7239 10.75 11.5 10.9739 11.5 11.25C11.5 11.5261 11.7239 11.75 12 11.75V10.75ZM2.50476 9.81882C2.91283 12.7552 5.23552 15.0553 8.17576 15.4347L8.30373 14.4429C5.81068 14.1213 3.84125 12.171 3.49524 9.68118L2.50476 9.81882ZM8.17576 15.4347C11.116 15.8141 13.9465 14.1789 15.0865 11.4423L14.1635 11.0577C13.1968 13.3781 10.7968 14.7646 8.30373 14.4429L8.17576 15.4347ZM15.5 14.25V11.25H14.5V14.25H15.5ZM15 10.75H12V11.75H15V10.75Z" fill="#F1F5F9"/>
<path d="M14.5048 8.30775C14.5428 8.58126 14.7953 8.77217 15.0688 8.73416C15.3423 8.69615 15.5333 8.44361 15.4952 8.1701L14.5048 8.30775ZM2.91345 6.54664C2.80726 6.80155 2.92781 7.09428 3.18272 7.20047C3.43763 7.30667 3.73036 7.18611 3.83655 6.9312L2.91345 6.54664ZM3.5 3.73892C3.5 3.46278 3.27614 3.23892 3 3.23892C2.72386 3.23892 2.5 3.46278 2.5 3.73892H3.5ZM3 6.73892H2.5C2.5 7.01506 2.72386 7.23892 3 7.23892V6.73892ZM6 7.23892C6.27614 7.23892 6.5 7.01506 6.5 6.73892C6.5 6.46278 6.27614 6.23892 6 6.23892V7.23892ZM15.4952 8.1701C15.0872 5.2337 12.7645 2.93358 9.82424 2.5542L9.69627 3.54598C12.1893 3.86766 14.1587 5.81795 14.5048 8.30775L15.4952 8.1701ZM9.82424 2.5542C6.884 2.17481 4.05353 3.81001 2.91345 6.54664L3.83655 6.9312C4.80323 4.61079 7.20321 3.22429 9.69627 3.54598L9.82424 2.5542ZM2.5 3.73892V6.73892H3.5V3.73892H2.5ZM3 7.23892L6 7.23892V6.23892L3 6.23892V7.23892Z" fill="#F1F5F9"/>
</svg>
