<svg width="18" height="18" viewBox="0 0 18 18" fill="none" xmlns="http://www.w3.org/2000/svg">
<path d="M11.25 6C12.1943 6.7082 12.75 7.81966 12.75 9C12.75 10.1803 12.1943 11.2918 11.25 12" stroke="#F1F5F9" stroke-linecap="round" stroke-linejoin="round"/>
<path d="M13.275 3.75C14.8608 5.03151 15.7824 6.96113 15.7824 9C15.7824 11.0389 14.8608 12.9685 13.275 14.25" stroke="#F1F5F9" stroke-linecap="round" stroke-linejoin="round"/>
<path d="M4.5 11.25H3C2.58579 11.25 2.25 10.9142 2.25 10.5V7.50001C2.25 7.08579 2.58579 6.75001 3 6.75001H4.5L7.125 3.37501C7.26045 3.11192 7.56747 2.98687 7.84819 3.08044C8.12891 3.17401 8.29949 3.45827 8.25 3.75001V14.25C8.29949 14.5417 8.12891 14.826 7.84819 14.9196C7.56747 15.0131 7.26045 14.8881 7.125 14.625L4.5 11.25" stroke="#F1F5F9" stroke-linecap="round" stroke-linejoin="round"/>
</svg>
