<svg width="18" height="18" viewBox="0 0 18 18" fill="none" xmlns="http://www.w3.org/2000/svg">
<path d="M4.5 11.25H15.75" stroke="#F1F5F9" stroke-linecap="round" stroke-linejoin="round"/>
<path d="M15.75 14.25H4.5" stroke="#F1F5F9" stroke-linecap="round" stroke-linejoin="round"/>
<path d="M11.25 8.25H15.75" stroke="#F1F5F9" stroke-linecap="round" stroke-linejoin="round"/>
<path d="M15.75 5.25H11.25" stroke="#F1F5F9" stroke-linecap="round" stroke-linejoin="round"/>
<path d="M6.75 6.75H7.5C7.91421 6.75 8.25 7.08579 8.25 7.5C8.25 7.91421 7.91421 8.25 7.5 8.25C7.08579 8.25 6.75 7.91421 6.75 7.5V5.625C6.75 4.79657 7.42157 4.125 8.25 4.125" stroke="#F1F5F9" stroke-linecap="round" stroke-linejoin="round"/>
<path d="M2.25 6.75H3C3.41421 6.75 3.75 7.08579 3.75 7.5C3.75 7.91421 3.41421 8.25 3 8.25C2.58579 8.25 2.25 7.91421 2.25 7.5V5.625C2.25 4.79657 2.92157 4.125 3.75 4.125" stroke="#F1F5F9" stroke-linecap="round" stroke-linejoin="round"/>
</svg>
