<svg width="18" height="18" viewBox="0 0 18 18" fill="none" xmlns="http://www.w3.org/2000/svg">
<path d="M7.5 8.25H4.5C4.08579 8.25 3.75 7.91421 3.75 7.5V5.25C3.75 4.83579 4.08579 4.5 4.5 4.5H6.75C7.16421 4.5 7.5 4.83579 7.5 5.25V9.75C7.5 11.7503 6.50025 12.9998 4.5 13.5" stroke="#F1F5F9" stroke-linecap="round" stroke-linejoin="round"/>
<path d="M14.25 8.25H11.25C10.8358 8.25 10.5 7.91421 10.5 7.5V5.25C10.5 4.83579 10.8358 4.5 11.25 4.5H13.5C13.9142 4.5 14.25 4.83579 14.25 5.25V9.75C14.25 11.7503 13.2503 12.9998 11.25 13.5" stroke="#F1F5F9" stroke-linecap="round" stroke-linejoin="round"/>
</svg>
