<svg width="18" height="18" viewBox="0 0 18 18" fill="none" xmlns="http://www.w3.org/2000/svg">
<path d="M4.5 15.75L15.75 4.5L13.5 2.25L2.25 13.5L4.5 15.75" stroke="#F1F5F9" stroke-linecap="round" stroke-linejoin="round"/>
<path d="M11.25 4.5L13.5 6.75" stroke="#F1F5F9" stroke-linecap="round" stroke-linejoin="round"/>
<path d="M6.75 2.25C6.75 3.07843 7.42157 3.75 8.25 3.75C7.42157 3.75 6.75 4.42157 6.75 5.25C6.75 4.42157 6.07843 3.75 5.25 3.75C6.07843 3.75 6.75 3.07843 6.75 2.25" stroke="#F1F5F9" stroke-linecap="round" stroke-linejoin="round"/>
<path d="M14.25 9.75C14.25 10.5784 14.9216 11.25 15.75 11.25C14.9216 11.25 14.25 11.9216 14.25 12.75C14.25 11.9216 13.5784 11.25 12.75 11.25C13.5784 11.25 14.25 10.5784 14.25 9.75" stroke="#F1F5F9" stroke-linecap="round" stroke-linejoin="round"/>
</svg>
